<svg width="24" height="24" viewBox="0 0 24 24" fill="none" xmlns="http://www.w3.org/2000/svg">
<path d="M14.742 1.08299C14.8406 1.08282 14.9382 1.10207 15.0293 1.13965C15.1204 1.17722 15.2032 1.23239 15.273 1.30199L22.698 8.72699C22.8386 8.86764 22.9176 9.05837 22.9176 9.25724C22.9176 9.45612 22.8386 9.64685 22.698 9.78749C21.978 10.5075 21.09 10.6695 20.4435 10.6695C20.178 10.6695 19.941 10.6425 19.7535 10.611L15.0525 15.312C15.1763 15.8106 15.2566 16.319 15.2925 16.8315C15.3615 17.8845 15.2445 19.362 14.2125 20.394C14.0719 20.5346 13.8811 20.6136 13.6822 20.6136C13.4834 20.6136 13.2926 20.5346 13.152 20.394L8.9085 16.152L4.1355 20.925C3.843 21.2175 2.307 22.278 2.0145 21.9855C1.722 21.693 2.7825 20.1555 3.075 19.8645L7.848 15.0915L3.606 10.848C3.4654 10.7073 3.38641 10.5166 3.38641 10.3177C3.38641 10.1189 3.4654 9.92814 3.606 9.78749C4.638 8.75549 6.1155 8.63699 7.1685 8.70749C7.68099 8.7434 8.18939 8.8237 8.688 8.94749L13.389 4.24799C13.3498 4.01957 13.3297 3.78826 13.329 3.55649C13.329 2.91149 13.491 2.02349 14.2125 1.30199C14.3531 1.16179 14.5435 1.08304 14.742 1.08299V1.08299Z" fill="#737373"/>
</svg>
