<svg width="60" height="60" viewBox="0 0 60 60" fill="none" xmlns="http://www.w3.org/2000/svg">
<path d="M8.4375 10.7812H18.2812V7.03125C18.2812 6.77344 18.4922 6.5625 18.75 6.5625H22.0312C22.2891 6.5625 22.5 6.77344 22.5 7.03125V10.7812H37.5V7.03125C37.5 6.77344 37.7109 6.5625 37.9688 6.5625H41.25C41.5078 6.5625 41.7188 6.77344 41.7188 7.03125V10.7812H51.5625C52.5996 10.7812 53.4375 11.6191 53.4375 12.6562V51.5625C53.4375 52.5996 52.5996 53.4375 51.5625 53.4375H8.4375C7.40039 53.4375 6.5625 52.5996 6.5625 51.5625V12.6562C6.5625 11.6191 7.40039 10.7812 8.4375 10.7812ZM10.7812 49.2188H49.2188V26.9531H10.7812V49.2188ZM49.2188 22.9688V15H41.7188V17.8125C41.7188 18.0703 41.5078 18.2812 41.25 18.2812H37.9688C37.7109 18.2812 37.5 18.0703 37.5 17.8125V15H22.5V17.8125C22.5 18.0703 22.2891 18.2812 22.0312 18.2812H18.75C18.4922 18.2812 18.2812 18.0703 18.2812 17.8125V15H10.7812V22.9688H49.2188Z" fill="#737373"/>
</svg>
